<svg id="settings" xmlns="http://www.w3.org/2000/svg" xmlns:xlink="http://www.w3.org/1999/xlink" width="46.007" height="46.103" viewBox="0 0 46.007 46.103">
  <defs>
    <linearGradient id="linear-gradient" x1="0.5" x2="0.5" y2="1" gradientUnits="objectBoundingBox">
      <stop offset="0" stop-color="#615cfd"/>
      <stop offset="1" stop-color="#d465ef"/>
    </linearGradient>
  </defs>
  <path id="Path_276" data-name="Path 276" d="M31.385,12.939a14.435,14.435,0,0,0-1.342-3.355L31.193,6.9l-4.026-3.93-2.684,1.15A12.931,12.931,0,0,0,21.129,2.78L20.171,0H14.516L13.462,2.78a14.435,14.435,0,0,0-3.355,1.342L7.423,2.971,3.493,6.9l1.15,2.684A12.931,12.931,0,0,0,3.3,12.939L.522,13.994v5.655L3.3,20.7a14.435,14.435,0,0,0,1.342,3.355l-1.15,2.684,4.026,3.93,2.684-1.15a12.931,12.931,0,0,0,3.355,1.342l1.054,2.78h5.559l1.054-2.78a14.435,14.435,0,0,0,3.355-1.342l2.684,1.15,4.026-3.93-1.15-2.684A12.931,12.931,0,0,0,31.481,20.7l2.78-1.054V13.994ZM17.3,23.675a6.9,6.9,0,1,1,6.9-6.9A6.872,6.872,0,0,1,17.3,23.675Z" transform="translate(-0.522)" fill="url(#linear-gradient)"/>
  <g id="Group_78" data-name="Group 78" transform="translate(6.47 6.47)">
    <path id="Path_277" data-name="Path 277" d="M116.14,115.618a6.826,6.826,0,0,1-9.681,0l-2.492,2.492a10.37,10.37,0,1,0,14.665-14.665l-2.492,2.492A6.826,6.826,0,0,1,116.14,115.618Z" transform="translate(-100.948 -100.426)" fill="#54c0eb"/>
    <path id="Path_278" data-name="Path 278" d="M74.072,73.55a10.413,10.413,0,0,0,0,14.665l2.492-2.492a6.845,6.845,0,1,1,9.681-9.681l2.492-2.492A10.413,10.413,0,0,0,74.072,73.55Z" transform="translate(-71.053 -70.531)" fill="#54c0eb"/>
  </g>
  <path id="Path_279" data-name="Path 279" d="M213.334,344.892a4.653,4.653,0,0,0,0-1.629l.958-.958-.958-2.4h-1.342a13.01,13.01,0,0,0-1.15-1.15v-1.342l-2.4-.958-.958.958a4.651,4.651,0,0,0-1.629,0l-.958-.958-2.4.958v1.342a13,13,0,0,0-1.15,1.15h-1.342l-.958,2.4.958.958a4.651,4.651,0,0,0,0,1.629l-.958.958.958,2.4h1.342a13.012,13.012,0,0,0,1.15,1.15v1.342l2.4.958.958-.958a4.651,4.651,0,0,0,1.629,0l.958.958,2.4-.958V349.4a13.014,13.014,0,0,0,1.15-1.15h1.342l.958-2.4Zm-7.668,2.013a3.1,3.1,0,1,1,4.026-1.725A3.065,3.065,0,0,1,205.667,346.9Z" transform="translate(-180.842 -305.594)" fill="#4cdbc4"/>
  <path id="Path_280" data-name="Path 280" d="M350.215,208.011a4.651,4.651,0,0,0,0-1.629l.958-.958-.958-2.4h-1.342a13.012,13.012,0,0,0-1.15-1.15v-1.342l-2.4-.958-.958.958a4.652,4.652,0,0,0-1.629,0l-.958-.958-2.4.958v1.342a13.011,13.011,0,0,0-1.15,1.15h-1.342l-.958,2.4.958.958a4.654,4.654,0,0,0,0,1.629l-.958.958.958,2.4h1.342a13.011,13.011,0,0,0,1.15,1.15v1.342l2.4.958.958-.958a4.653,4.653,0,0,0,1.629,0l.958.958,2.4-.958v-1.342a13.018,13.018,0,0,0,1.15-1.15h1.342l.958-2.4Zm-7.764,2.109a3.1,3.1,0,1,1,4.026-1.725A3,3,0,0,1,342.452,210.119Z" transform="translate(-305.167 -181.269)" fill="#ff7058"/>
</svg>
