<svg id="globe" xmlns="http://www.w3.org/2000/svg" xmlns:xlink="http://www.w3.org/1999/xlink" width="46.106" height="46.103" viewBox="0 0 46.106 46.103">
  <defs>
    <linearGradient id="linear-gradient" x1="0.5" x2="0.5" y2="1" gradientUnits="objectBoundingBox">
      <stop offset="0" stop-color="#615cfd"/>
      <stop offset="1" stop-color="#d465ef"/>
    </linearGradient>
  </defs>
  <ellipse id="Ellipse_17" data-name="Ellipse 17" cx="23.052" cy="23.052" rx="23.052" ry="23.052" transform="translate(0 0)" fill="url(#linear-gradient)"/>
  <g id="Group_76" data-name="Group 76" transform="translate(0.051 1.492)">
    <path id="Path_261" data-name="Path 261" d="M131.246,470.129c0,.009-.01.014-.014.023.035.009.068.02.1.027Z" transform="translate(-119.448 -429.226)" fill="#e9eff4"/>
    <path id="Path_262" data-name="Path 262" d="M114.846,104.117l-.046-.094c.385-.058.411-.329.7-.429.333-.11.219.01.547,0,.265-.012.427.182.73.04a1.043,1.043,0,0,1-.313.307,2.361,2.361,0,0,1-.8.429A.785.785,0,0,1,114.846,104.117Z" transform="translate(-104.498 -95.704)" fill="#e9eff4"/>
    <path id="Path_263" data-name="Path 263" d="M15.52,88.715a1.18,1.18,0,0,1-.229.553,5.606,5.606,0,0,0-.807,2.519c-.062.85-.025,1.9-.765,2.316-.423.235-1.017.193-1.3.59a1.317,1.317,0,0,0-.172.413q-.273.993-.547,1.987c-.235-.02-.475-.046-.708-.072a.518.518,0,0,1,.3.72.6.6,0,0,0-.762.293,1.227,1.227,0,0,0-.042.882,2.575,2.575,0,0,0,1.853,1.772c-.152.287-.615.162-.9-.03a10.741,10.741,0,0,1-4.238-5.78,8.465,8.465,0,0,0-.883-2.408c-.4-.6-1.007-1.037-1.408-1.636-.563-.86-.668-1.975-1.32-2.762-.365-.449-.929-1-.606-1.48.13-.2.407-.385.3-.594-.036-.068-.11-.11-.167-.167-.219-.235-.068-.6.042-.908a3.542,3.542,0,0,0,.1-1.652,4.749,4.749,0,0,1-1.252-1.783c-.162-.417-.377-.938-.824-.944-.115-.323-.235-.646-.351-.97a.334.334,0,0,1-.281.2,22.921,22.921,0,0,1,5.79-13.79,2.293,2.293,0,0,0,.219-.115c.786-.459,1.413-1.147,2.173-1.648a.824.824,0,0,1,.527-.183c.188.016.365.208.3.385a.4.4,0,0,1-.152.177,16.081,16.081,0,0,1-2.9,1.968.615.615,0,0,0-.312.261.44.44,0,0,0,.3.557,1.3,1.3,0,0,0,.7-.02,1.138,1.138,0,0,0-.152.97c.214.02.281-.271.345-.475.26-.808,1.548-1.137,1.465-1.988.349.182.7-.225.918-.558s.688-.672.949-.375c.014.166.035.333.051.5l1.382-.351a.666.666,0,0,0,.625,1.163c0,.245-.224.433-.423.579a5.774,5.774,0,0,1-1.636.96l.136.281a.128.128,0,0,1-.046.012c-.375.036-.772-.234-1.173-.182-.245.032-.547.032-.688.281-.02.032-.108.469-.046.433l.652-.375a1.068,1.068,0,0,1,.046.568,1.276,1.276,0,0,1,.778.172,1.546,1.546,0,0,1-1.5.9c-.006-.188-.016-.375-.022-.563a1.4,1.4,0,0,0-1.183.835A3.355,3.355,0,0,1,6.8,71.387a7.863,7.863,0,0,1-.86.391.78.78,0,0,0-.473.746,2.18,2.18,0,0,1,.115.433c-.016.281-.343.413-.563.594-.375.313-.469.887-.87,1.163a3.465,3.465,0,0,1-1.017.3c-.339.1-.678.443-.541.772a.3.3,0,0,1-.387-.245A11.442,11.442,0,0,0,1.045,79.32c.3.208.6-.267.657-.626s.375-.83.667-.616c-.068.517-.136,1.027-.2,1.544a.456.456,0,0,0,.022.291c.058.11.182.156.277.234.265.229.229.636.245.985a2.511,2.511,0,0,0,.381,1.209c-.022-.074-.036-.146-.052-.219a1.459,1.459,0,0,0,1.137-.351,1.7,1.7,0,0,1,.5-.407,1.077,1.077,0,0,1,.652.036,3.475,3.475,0,0,1,1.809.906,5.633,5.633,0,0,0,.632.818c.6.511,1.628.286,2.18.854a2.062,2.062,0,0,1,.241,1.83c-.3-.166-.708.251-.531.548a.87.87,0,0,1,.584-.365c.24-.006.449.323.271.475a.961.961,0,0,1,1.6.349c.584.042,1.173.082,1.757.13C13.761,87.8,15.556,87.853,15.52,88.715Z" transform="translate(-0.56 -59.755)" fill="#e9eff4"/>
    <path id="Path_264" data-name="Path 264" d="M120.562,52.241a.447.447,0,1,1-.3-.837c.154-.036.369-.019.417-.17a.483.483,0,0,0,.006-.144.661.661,0,0,1,.525-.594,1.937,1.937,0,0,1,.847.039,1.051,1.051,0,0,1,.081.669l-.576.025c.017.319-.014.72-.31.838-.265.105-.612-.091-.833.088" transform="translate(-109.156 -47.404)" fill="#e9eff4"/>
    <path id="Path_265" data-name="Path 265" d="M160.176,18.213c.524-.251.967-.646,1.483-.912a6.82,6.82,0,0,1,2.925-.528l6.818-.212q-.79.433-1.581.867a1.918,1.918,0,0,1-1.391.345.738.738,0,0,0,.716.729c-.934.577-2.229-.013-3.215.472-.413.2-.746.587-1.2.659-.263.042-.535-.029-.8.029-.437.1-.713.509-1.036.818a1.441,1.441,0,0,1-1.405.43c-.486-.17-.74-.893-.351-1.231a3.268,3.268,0,0,1,.693-.31c.227-.115.405-.426.235-.615-.074-.082-.195-.114-.263-.2s-.066-.231-.127-.335c-.231-.405-.873.14-1.31-.023" transform="translate(-145.782 -16.561)" fill="#e9eff4"/>
    <path id="Path_266" data-name="Path 266" d="M236.7,50.8a4.586,4.586,0,0,0,.861-.385,1.075,1.075,0,0,1,.91-.071c.084.209-.157.4-.369.475a2.583,2.583,0,0,1-1.274.111" transform="translate(-215.408 -47.227)" fill="#e9eff4"/>
    <path id="Path_267" data-name="Path 267" d="M258.085,51.488a.734.734,0,0,1-.261-.016,3.264,3.264,0,0,1-1.023-.6,2.719,2.719,0,0,0-2.659-.16,1.591,1.591,0,0,0,.276-.991l-.12.042c-1.366-.792-2.968-1.615-4.459-1.082-.345.126-.657.313-1.006.433a4.126,4.126,0,0,0-1.1.413c-.323.229-.495.736-.218,1.011.235.235.61.172.939.2s.694.354.517.631q-2.143,1-4.29,2.016a1.465,1.465,0,0,1,.949,1.636c-.48.084-.944-.208-1.428-.24a1.318,1.318,0,1,0-.061,2.633c.527-.006,1.043-.323,1.554-.189a1.989,1.989,0,0,1,.687-1.231,2.517,2.517,0,0,1,2.472-.929,2.807,2.807,0,0,1,.772.489q.79.625,1.581,1.261c.167-.172.333-.345.5-.511l.866.912c.146-.1.3-.193.443-.293.1.271.214.537.319.808.042-.3.078-.589.114-.882a2.128,2.128,0,0,0,1.022-.136.714.714,0,0,0,.411-.85c-.068-.172-.229-.307-.261-.491-.068-.365.453-.615.792-.449a1.566,1.566,0,0,1,.642.892c.078-.355.15-.7.229-1.059a8.376,8.376,0,0,0,1.381,2.363,5.678,5.678,0,0,0-3.2.325,1.677,1.677,0,0,0,1.414.693c.245-.006.517-.062.7.094a.754.754,0,0,1,.2.491c.084.5.167,1,.245,1.491a3.353,3.353,0,0,0-2.112-.426c-.736-.02-1.6-.224-1.867-.906a1.475,1.475,0,0,0-.338,1.237c-.762-.182-1.638-.473-1.857-1.225a1.184,1.184,0,0,1-1.5-.77c-.058-.214-.074-.475-.261-.589a.636.636,0,0,0-.4-.042c-1.131.131-2.258.257-3.384.388a4.818,4.818,0,0,0-1.794.449,1.63,1.63,0,0,0-.912,1.5,7.03,7.03,0,0,0-2.512,2.557,1.565,1.565,0,0,0-.276,1.059c.052.281.24.521.3.8a3.284,3.284,0,0,1-.286,1.4c-.323,1.335.69,2.591,1.629,3.6a2.556,2.556,0,0,0,1.6,1.006,2.942,2.942,0,0,0,1.157-.309,8.393,8.393,0,0,1,3.394-.57c-.261.2.01.646.335.714a7.671,7.671,0,0,1,.985.072c.714.255.616,1.3.293,1.987.162-.032.329-.063.495-.094-.088.229-.177.459-.265.682.98.124,1.351,1.413,1.123,2.376a14.118,14.118,0,0,0-.812,2.842,5.057,5.057,0,0,0,.329,1.584q.628,1.963,1.254,3.93c1.169.14,1.84-1.346,2.925-1.811a3.844,3.844,0,0,0,1.2-.517c.307-.291.208-.975-.188-.975a1.17,1.17,0,0,0,1.011-1.091c.006-.151-.016-.3,0-.453a1.5,1.5,0,0,1,.3-.584,19.029,19.029,0,0,0,1.9-3.9c.14-.361.281-.714.421-1.075.531-1.34,1.058-2.675,1.589-4.016.208-.527.417-1.048.625-1.576a1.014,1.014,0,0,1-1.466.058,7.214,7.214,0,0,1-1-1.335,4.009,4.009,0,0,1-.809-1.183,7.079,7.079,0,0,1-.11-.83A6.313,6.313,0,0,0,257,62.54a1.639,1.639,0,0,1-.032-1.721,65.984,65.984,0,0,1,3,5.9,1.278,1.278,0,0,1,.62-.736,7.2,7.2,0,0,1,.678-.255,1.671,1.671,0,0,0-.012-3.07,6.371,6.371,0,0,1-.918-.339.637.637,0,0,1-.307-.824.656.656,0,0,1,.844-.11c.277.152.48.407.74.579.188.126.407.208.61.323,1.1.631,1.372,2.065,1.6,3.316.126.672.267,1.34.434,2,.006-.141,0-.287,0-.427A22.969,22.969,0,0,0,258.085,51.488Zm2.111,7.575a.814.814,0,0,1-.413-.2,1.136,1.136,0,0,1-.454-.584c-.068-.291.072-.626-.084-.886a1.182,1.182,0,0,0-.313-.291,1.637,1.637,0,0,1-.574-.912c-.068-.313.03-.73.349-.782a.371.371,0,0,1,.385.2l-.214.115a.492.492,0,0,1,.251.818c-.036.036-.084.068-.084.12a.112.112,0,0,0,.048.084,2.9,2.9,0,0,0,.85.489c.291.152.579.433.532.756l-.276.1c-.1.1-.02.277.084.375s.24.2.245.343A.3.3,0,0,1,260.2,59.063Z" transform="translate(-218.21 -45.625)" fill="#e9eff4"/>
    <path id="Path_268" data-name="Path 268" d="M445.185,343.457l-.377.267a1.02,1.02,0,0,1-.577,1.183c-.235.1-.548.137-.628.378-.066.2.092.413.114.626.035.355-.3.62-.537.884s-.366.76-.048.919a.651.651,0,0,0,.241.052,1.5,1.5,0,0,0,1.009-.162c.811-.579.04-2.148.841-2.743.114-.084.257-.144.319-.271C445.732,344.217,445.035,343.847,445.185,343.457Z" transform="translate(-403.049 -313.977)" fill="#e9eff4"/>
  </g>
</svg>
