<svg xmlns="http://www.w3.org/2000/svg" width="46.106" height="46.103" viewBox="0 0 501.551 501.551">
  <ellipse cx="135.837" cy="248.686" rx="135.837" ry="136.882" fill="#ffd15c"/>
  <ellipse cx="135.837" cy="248.686" rx="86.727" ry="87.771" fill="#fff"/>
  <ellipse cx="404.376" cy="98.22" rx="97.175" ry="98.22" fill="#84dbff"/>
  <ellipse cx="404.376" cy="98.22" rx="58.514" ry="58.514" fill="#fff"/>
  <ellipse cx="404.376" cy="403.331" rx="97.175" ry="98.22" fill="#ff7058"/>
  <g fill="#40596b">
    <path d="M335.412 166.139l-14.629 8.359-57.469 32.392c-5.224-16.718-14.629-32.392-25.078-45.976l57.469-32.392 14.629-8.359c4.18 17.764 13.584 33.437 25.078 45.976zM336.457 334.367c-12.539 12.539-21.943 28.212-26.122 45.976l-14.629-8.359-58.514-34.482c11.494-13.584 19.853-29.257 26.122-45.976l58.514 34.482 14.629 8.359z"/>
  </g>
  <g fill="#334a5e">
    <path d="M335.412 166.139l-14.629 8.359c-11.494-12.539-20.898-28.212-25.078-45.975l14.629-8.359c4.18 17.763 13.584 33.436 25.078 45.975zM336.457 334.367c-12.539 12.539-21.943 28.212-26.122 45.976l-14.629-8.359c5.224-17.763 14.629-33.437 26.122-45.976l14.629 8.359z"/>
  </g>
  <ellipse cx="404.376" cy="403.331" rx="58.514" ry="58.514" fill="#fff"/>
</svg>