<svg xmlns="http://www.w3.org/2000/svg" width="46.106" height="46.103" viewBox="0 0 501.551 501.551">
  <path d="M384.454 0H22.919C11.425 0 2.021 9.404 2.021 20.898v459.755c0 11.494 9.404 20.898 20.898 20.898h361.535c11.494 0 20.898-9.404 20.898-20.898V20.898C405.352 9.404 395.948 0 384.454 0z" fill="#f2f2f2"/>
  <g fill="#4cdbc4">
    <path d="M40.682 73.143h316.604v26.122H40.682zM40.682 153.6h285.257v26.122H40.682zM40.682 238.237h212.114v26.122H40.682zM40.682 318.694h153.6v26.122h-153.6zM40.682 402.286h92.996v26.122H40.682z"/>
  </g>
  <path fill="#ffd15c" d="M354.152 341.682l-62.694 62.694-83.592 16.718-54.335 10.449 10.449-54.335 16.719-83.592 62.694-61.649z"/>
  <path fill="#ff7058" d="M301.907 338.547l-65.829 10.449 10.449-65.829 137.927-137.926 55.379 55.379z"/>
  <g fill="#f1543f">
    <path d="M468.046 227.788L291.458 404.376l10.449-65.829L439.833 200.62zM384.454 145.241L246.527 283.167l-65.828 10.449 176.588-176.587z"/>
  </g>
  <g fill="#40596b">
    <path d="M207.866 421.094l-54.335 10.449 10.449-54.335zM493.123 172.408l-80.457-80.457c-8.359-8.359-20.898-8.359-29.257 0l-25.078 25.078L469.09 227.788l25.078-25.078c7.314-8.359 7.314-21.943-1.045-30.302z"/>
  </g>
</svg>