<svg xmlns="http://www.w3.org/2000/svg" width="141" height="49"><g fill="none" fill-rule="evenodd"><rect width="141" height="49" fill="#000" fill-rule="nonzero" rx="2"/><rect width="141" height="49" fill="#27AE60" rx="2"/><path fill="#FFF" fill-rule="nonzero" d="M31.8 20l-6 3.5c-.9-.8-2.2-.7-3 0-.9.8-1 2-.5 3 .6 1 1.8 1.4 2.8 1 1.1-.4 1.7-1.5 1.5-2.6l6-3.4c.5-.3 1.4-.7 1.9-.5.3.2.4.8.5 1.7v7.6a2 2 0 0 1-1 1.7l-8.7 5a2 2 0 0 1-2 0l-8.6-5a2 2 0 0 1-1-1.7v-10a2 2 0 0 1 1-1.8l7.8-4.6c.7.9 2 1.1 3 .5 1-.6 1.4-1.8 1-2.8a2.4 2.4 0 0 0-4.6.7L14 17a3.7 3.7 0 0 0-1.9 3.2v10c0 1.4.7 2.6 1.8 3.3l8.7 5c1.1.7 2.5.7 3.6 0l8.7-5a3.7 3.7 0 0 0 1.8-3.2V23c0-1.8-.4-2.9-1.3-3.4-1.4-.8-3.2.2-3.5.4z"/><g fill="#FFF"><path d="M47.7 12.4h2.5c1.2 0 2 .2 2.6.5.5.4.8 1 .8 1.7 0 .5-.2.9-.4 1.2-.3.4-.6.6-1.1.7.6.1 1 .3 1.3.7.3.3.4.8.4 1.3 0 .8-.2 1.4-.8 1.8-.5.5-1.3.7-2.2.7h-3.1v-8.6zM49 16h1.3c.6 0 1-.1 1.3-.3.3-.2.4-.5.4-1 0-.4-.1-.6-.4-.8-.3-.2-.8-.3-1.4-.3h-1.2V16zm0 1.1v2.7h1.5c.6 0 1 0 1.3-.3.3-.2.5-.6.5-1 0-.5-.2-.9-.5-1-.3-.3-.8-.4-1.4-.4h-1.4zM61.5 21l-.9-2.4h-3.2l-.9 2.4H55l3.2-8.6h1.6L63 21h-1.5zm-1.2-3.6l-.8-2.3a14.4 14.4 0 0 1-.5-1.5l-.5 1.6-.7 2.2h2.5zm8-3.9c-.8 0-1.4.3-1.9.9-.5.5-.7 1.3-.7 2.3 0 1 .2 1.9.7 2.4.4.6 1 .8 2 .8h1l1-.4v1.2c-.6.3-1.4.4-2.3.4-1.2 0-2.2-.4-2.9-1.1-.6-.8-1-1.9-1-3.3 0-.9.2-1.7.5-2.3.4-.7.8-1.2 1.4-1.6a5.4 5.4 0 0 1 4.6 0l-.5 1.2-.9-.3-1-.2zM79.6 21H78l-2.7-3.9-.8.7V21H73v-8.6h1.4v4.1l1.1-1.3 2.3-2.8h1.6l-3.2 3.8 3.3 4.8zm6.8 0h-4.9v-8.6h4.9v1.2h-3.5V16h3.3v1.2h-3.3v2.7h3.5V21zm9.8 0h-1.7l-4.3-6.8v.4l.1 2V21H89v-8.6h1.7l4.2 6.8a39.7 39.7 0 0 1 0-2.3v-4.5h1.3V21zm10-4.4c0 1.4-.4 2.5-1.2 3.3-.8.7-1.9 1.1-3.4 1.1h-2.4v-8.6h2.7c1.3 0 2.4.4 3.2 1.1.7.8 1.1 1.8 1.1 3.1zm-1.5 0c0-2-1-3-2.9-3h-1.2v6.2h1c2 0 3.1-1 3.1-3.1zm8-4.2h2.6c1.2 0 2 .2 2.6.5.5.4.7 1 .7 1.7 0 .5 0 .9-.3 1.2-.3.4-.7.6-1.2.7.6.1 1 .3 1.4.7.3.3.4.8.4 1.3 0 .8-.3 1.4-.8 1.8-.5.5-1.3.7-2.2.7h-3.1v-8.6zm1.5 3.6h1.3c.6 0 1-.1 1.3-.3.3-.2.4-.5.4-1 0-.4-.2-.6-.4-.8-.3-.2-.8-.3-1.4-.3h-1.2V16zm0 1.1v2.7h1.4c.6 0 1 0 1.4-.3.3-.2.4-.6.4-1 0-.5-.1-.9-.4-1-.3-.3-.8-.4-1.4-.4h-1.4zm9.7-.8l2-3.9h1.6l-2.9 5.3V21h-1.4v-3.3l-2.9-5.3h1.6l2 4z" opacity=".7"/><path d="M51.4 32.4h3.2v4.3a9.1 9.1 0 0 1-3 .4c-1.4 0-2.4-.4-3-1.1-.8-.8-1.1-1.9-1.1-3.3s.4-2.4 1.2-3.2c.8-.8 1.8-1.2 3.2-1.2 1 0 1.8.2 2.6.5L54 30a5 5 0 0 0-2.1-.5c-1 0-1.6.3-2.2.9-.5.5-.8 1.3-.8 2.3 0 1 .3 1.9.8 2.4.4.6 1.1.8 2 .8l1.5-.1v-2.2h-1.8v-1.2zm7.6 0h1c.6 0 1.1-.1 1.4-.3.3-.3.4-.6.4-1.1 0-.5-.1-.9-.4-1-.4-.3-.8-.4-1.5-.4H59v2.8zm0 1.2V37h-1.4v-8.6H60c1.1 0 2 .2 2.5.7.5.4.8 1 .8 1.8 0 1.1-.6 1.9-1.7 2.3L64 37h-1.6l-2-3.4H59zM71.6 37l-.9-2.4h-3.2l-.9 2.4h-1.5l3.3-8.6h1.5L73 37h-1.5zm-1.2-3.6l-.8-2.3a14.4 14.4 0 0 1-.5-1.5l-.5 1.6-.7 2.2h2.5zM80.9 31c0 1-.3 1.6-.9 2-.6.6-1.4.8-2.5.8h-.9V37h-1.4v-8.6h2.5c1 0 1.9.3 2.4.7.5.4.8 1 .8 2zm-4.3 1.6h.8c.7 0 1.2-.1 1.5-.4.4-.2.5-.6.5-1.1 0-.5-.1-.9-.4-1.1-.3-.3-.8-.4-1.4-.4h-1v3zM90.4 37h-1.5v-3.9H85V37h-1.4v-8.6H85V32h4v-3.5h1.4V37zm6.9-7.5c-.9 0-1.5.3-2 .9-.4.5-.6 1.3-.6 2.3 0 1 .2 1.9.6 2.4.5.6 1.1.8 2 .8h1l1-.4v1.2c-.6.3-1.4.4-2.2.4-1.3 0-2.2-.4-3-1.1-.6-.8-1-1.9-1-3.3 0-.9.2-1.7.6-2.3.3-.7.8-1.2 1.4-1.6a5.4 5.4 0 0 1 4.6 0l-.5 1.2-1-.3-1-.2zm12.3 3.2c0 1.4-.4 2.5-1 3.3-.8.7-1.8 1.1-3 1.1-1.3 0-2.3-.4-3-1.1-.7-.8-1-1.9-1-3.3s.3-2.5 1-3.3c.7-.7 1.7-1.1 3-1.1s2.2.4 3 1.2c.6.7 1 1.8 1 3.2zm-6.6 0c0 1 .3 1.9.7 2.4.4.5 1 .8 1.9.8.8 0 1.4-.2 1.9-.8.4-.5.6-1.3.6-2.4 0-1-.2-1.8-.6-2.4-.5-.5-1-.8-2-.8-.8 0-1.4.3-1.8.8-.4.6-.7 1.4-.7 2.4zm17 0c0 1.4-.3 2.5-1 3.3-.7.7-1.7 1.1-3 1.1s-2.3-.4-3-1.1c-.7-.8-1-1.9-1-3.3s.3-2.5 1-3.3c.7-.7 1.7-1.1 3-1.1s2.3.4 3 1.2c.7.7 1 1.8 1 3.2zm-6.5 0c0 1 .2 1.9.6 2.4.4.5 1 .8 2 .8.7 0 1.4-.2 1.8-.8.4-.5.6-1.3.6-2.4 0-1-.2-1.8-.6-2.4-.4-.5-1-.8-1.9-.8-.8 0-1.4.3-1.9.8-.4.6-.6 1.4-.6 2.4zm9.4 4.3v-8.6h1.4v7.4h3.6V37h-5z"/></g></g></svg>